<svg width="29" height="26" viewBox="0 0 29 26" fill="none" xmlns="http://www.w3.org/2000/svg">
<path d="M12.2405 25.1738C11.8925 25.2028 11.5445 25.2173 11.1965 25.2173C9.50002 25.2173 7.89051 24.8113 6.45501 24.1008L0.814512 24.9128L1.67003 19.2433H1.68452C1.10452 17.9673 0.756522 16.5608 0.756522 15.0673C0.756522 12.3268 1.87301 9.84734 3.67101 8.02034" stroke="#AEBAA8" stroke-width="1.5" stroke-linecap="round" stroke-linejoin="round"/>
<path d="M12.5161 13.2985C13.1567 13.2985 13.6761 12.7921 13.6761 12.1675C13.6761 11.5428 13.1567 11.0365 12.5161 11.0365C11.8754 11.0365 11.3561 11.5428 11.3561 12.1675C11.3561 12.7921 11.8754 13.2985 12.5161 13.2985Z" fill="#AEBAA8"/>
<path d="M17.1561 13.2985C17.7967 13.2985 18.3161 12.7921 18.3161 12.1675C18.3161 11.5428 17.7967 11.0365 17.1561 11.0365C16.5154 11.0365 15.9961 11.5428 15.9961 12.1675C15.9961 12.7921 16.5154 13.2985 17.1561 13.2985Z" fill="#AEBAA8"/>
<path d="M21.7816 13.2985C22.4222 13.2985 22.9416 12.7921 22.9416 12.1675C22.9416 11.5428 22.4222 11.0365 21.7816 11.0365C21.1409 11.0365 20.6216 11.5428 20.6216 12.1675C20.6216 12.7921 21.1409 13.2985 21.7816 13.2985Z" fill="#AEBAA8"/>
<path d="M26.5887 16.3434L27.4442 22.0129L21.8037 21.2009C20.7887 21.7084 19.6867 22.0564 18.5122 22.2159C18.0482 22.2884 17.5552 22.3174 17.0622 22.3174C11.2912 22.3174 6.63668 17.7789 6.63668 12.1674C6.63668 9.36889 7.78218 6.87489 9.66717 5.03339C11.5377 3.16289 14.1622 2.01739 17.0767 2.01739C22.8477 2.01739 27.5022 6.55589 27.5022 12.1674C27.5022 13.6609 27.1542 15.0674 26.5742 16.3434H26.5887V16.3434Z" stroke="#AEBAA8" stroke-width="1.8" stroke-linecap="round" stroke-linejoin="round"/>
<circle cx="25.9739" cy="3.02609" r="2.51739" fill="#FF0000" stroke="#F3FBEB"/>
</svg>
