<svg width="20" height="20" viewBox="0 0 20 20" fill="none" xmlns="http://www.w3.org/2000/svg">
<g opacity="0.7">
<path d="M16.6668 12.5001H9.65012C9.27512 11.4251 8.26679 10.65 7.05846 10.65C5.85013 10.65 4.85012 11.4251 4.47512 12.5001H3.24178C2.78345 12.5001 2.40845 12.8751 2.40845 13.3334C2.40845 13.7917 2.78345 14.1667 3.24178 14.1667H4.43347C4.7668 15.3167 5.80847 16.1584 7.0668 16.1584C8.32514 16.1584 9.35846 15.3167 9.6918 14.1667H16.6668C17.1251 14.1667 17.5001 13.7917 17.5001 13.3334C17.5001 12.8751 17.1251 12.5001 16.6668 12.5001ZM7.0668 14.4917C6.4668 14.4917 5.98345 14.0084 5.98345 13.4001C5.98345 12.7917 6.4668 12.3167 7.0668 12.3167C7.6668 12.3167 8.15013 12.8 8.15013 13.4084C8.15013 14.0167 7.6668 14.4917 7.0668 14.4917Z" fill="#686C66" fill-opacity="0.5"/>
<path d="M3.19173 7.50836H9.20008C9.55842 8.7167 10.6584 9.60004 11.9834 9.60004C13.3084 9.60004 14.4001 8.7167 14.7667 7.50836H16.6167C17.0751 7.50836 17.4501 7.13336 17.4501 6.67503C17.4501 6.2167 17.0751 5.8417 16.6167 5.8417H14.7667C14.4084 4.6417 13.3001 3.75836 11.9834 3.75836C10.6667 3.75836 9.56673 4.6417 9.2084 5.8417H3.19173C2.7334 5.8417 2.3584 6.2167 2.3584 6.67503C2.3584 7.13336 2.7334 7.50836 3.19173 7.50836ZM11.9834 5.42503C12.6751 5.42503 13.2334 5.98337 13.2334 6.68337C13.2334 7.38337 12.6751 7.93337 11.9834 7.93337C11.2917 7.93337 10.7334 7.37503 10.7334 6.67503C10.7334 5.97503 11.2917 5.42503 11.9834 5.42503Z" fill="#EE8E66"/>
</g>
</svg>
