<svg width="24" height="25" viewBox="0 0 24 25" fill="none" xmlns="http://www.w3.org/2000/svg">
<mask id="mask0_0_493" style="mask-type:luminance" maskUnits="userSpaceOnUse" x="0" y="0" width="24" height="25">
<path fill-rule="evenodd" clip-rule="evenodd" d="M0 0H23.8314V25H0V0Z" fill="white"/>
</mask>
<g mask="url(#mask0_0_493)">
<path fill-rule="evenodd" clip-rule="evenodd" d="M13.621 16.6138C15.0207 16.6138 16.1599 17.745 16.1599 19.1354V22.7113C16.1599 23.01 16.3994 23.2495 16.7063 23.2565H18.9221C20.6682 23.2565 22.0876 21.8545 22.0876 20.1316V9.9898C22.0795 9.39692 21.797 8.83891 21.3122 8.46807L13.6477 2.35553C12.6189 1.54061 11.1797 1.54061 10.1474 2.35786L2.53518 8.46574C2.03181 8.84821 1.74932 9.40622 1.7435 10.0096V20.1316C1.7435 21.8545 3.16294 23.2565 4.90905 23.2565H7.14574C7.46078 23.2565 7.71653 23.0065 7.71653 22.6996C7.71653 22.6322 7.72467 22.5648 7.73862 22.5008V19.1354C7.73862 17.7531 8.87092 16.6231 10.2601 16.6138H13.621ZM18.9221 25.0003H16.6854C15.4043 24.9701 14.4162 23.9645 14.4162 22.7113V19.1354C14.4162 18.7064 14.0593 18.3577 13.621 18.3577H10.266C9.837 18.36 9.48243 18.7099 9.48243 19.1354V22.6997C9.48243 22.7869 9.47081 22.8706 9.4464 22.9496C9.32084 24.1005 8.33735 25.0003 7.14577 25.0003H4.90908C2.20157 25.0003 -0.000244141 22.8159 -0.000244141 20.1317V10.0015C0.0113811 8.84591 0.543815 7.78801 1.46337 7.09167L9.06044 0.994246C10.7333 -0.331027 13.0642 -0.331028 14.7335 0.991921L22.3852 7.09515C23.2839 7.77988 23.8163 8.83545 23.8314 9.97704V20.1317C23.8314 22.8159 21.6296 25.0003 18.9221 25.0003Z" fill="#AEBAA8"/>
</g>
</svg>
