<svg width="14" height="14" viewBox="0 0 14 14" fill="none" xmlns="http://www.w3.org/2000/svg">
<mask id="mask0_0_312" style="mask-type:luminance" maskUnits="userSpaceOnUse" x="1" y="1" width="12" height="12">
<path fill-rule="evenodd" clip-rule="evenodd" d="M1.16687 1.16678H12.81V12.8042H1.16687V1.16678Z" fill="white"/>
</mask>
<g mask="url(#mask0_0_312)">
<path fill-rule="evenodd" clip-rule="evenodd" d="M4.4627 2.04166C2.99212 2.04166 2.04187 3.04907 2.04187 4.60774V9.36307C2.04187 10.9223 2.99212 11.9292 4.4627 11.9292H9.50854C10.9826 11.9292 11.9352 10.9223 11.9352 9.36307V4.60774C11.9352 3.04907 10.9826 2.04166 9.50854 2.04166H4.4627ZM9.50854 12.8042H4.4627C2.49104 12.8042 1.16687 11.4211 1.16687 9.36307V4.60774C1.16687 2.54974 2.49104 1.16666 4.4627 1.16666H9.50854C11.4831 1.16666 12.8102 2.54974 12.8102 4.60774V9.36307C12.8102 11.4211 11.4831 12.8042 9.50854 12.8042Z" fill="#EE8E66"/>
</g>
<path fill-rule="evenodd" clip-rule="evenodd" d="M3.08081 10.0219C2.97231 10.0219 2.8644 9.98222 2.77981 9.90172C2.60423 9.73605 2.59723 9.45838 2.76348 9.28397L3.65481 8.34305C4.12673 7.84197 4.92298 7.81747 5.4264 8.28997L5.98523 8.85697C6.14098 9.01447 6.39415 9.01738 6.55048 8.86338C6.6094 8.79397 7.8799 7.25105 7.8799 7.25105C8.1214 6.95822 8.46206 6.77738 8.84065 6.74005C9.21981 6.7068 9.5879 6.81705 9.88131 7.05797C9.9064 7.07838 9.92915 7.09822 11.2101 8.41363C11.3787 8.5863 11.3758 8.86338 11.2026 9.03197C11.0299 9.20172 10.7522 9.19647 10.5836 9.0238C10.5836 9.0238 9.3884 7.79705 9.30323 7.71422C9.21281 7.64013 9.06756 7.59697 8.92465 7.61097C8.7794 7.62555 8.64873 7.69497 8.55598 7.80755C7.20031 9.45197 7.18398 9.46772 7.16181 9.4893C6.66131 9.98047 5.8534 9.9723 5.36165 9.47063C5.36165 9.47063 4.81915 8.91997 4.80981 8.90888C4.67506 8.78405 4.43473 8.79222 4.29065 8.94447L3.39815 9.88538C3.31181 9.97638 3.19631 10.0219 3.08081 10.0219Z" fill="#EE8E66"/>
<path fill-rule="evenodd" clip-rule="evenodd" d="M4.99194 4.74185C4.66936 4.74185 4.40686 5.00435 4.40686 5.32752C4.40686 5.65069 4.66936 5.91377 4.99253 5.91377C5.31569 5.91377 5.57878 5.65069 5.57878 5.32752C5.57878 5.00494 5.31569 4.74244 4.99194 4.74185ZM4.99253 6.78877C4.18694 6.78877 3.53186 6.1331 3.53186 5.32752C3.53186 4.52194 4.18694 3.86685 4.99253 3.86685C5.79869 3.86744 6.45378 4.5231 6.45378 5.32752C6.45378 6.1331 5.79811 6.78877 4.99253 6.78877Z" fill="#EE8E66"/>
</svg>
