<svg width="29" height="25" viewBox="0 0 29 25" fill="none" xmlns="http://www.w3.org/2000/svg">
<path d="M11.3429 25C9.65715 25 8.02858 24.6429 6.5 23.9286L1.27143 24.6857C0.928571 24.7429 0.6 24.6143 0.357143 24.3857C0.114286 24.1429 -9.58996e-06 23.8 0.0571333 23.4714L0.857152 18.1714C0.285723 16.8 0 15.3714 0 13.9286C0 11.0429 1.12857 8.3 3.18571 6.22857C3.59999 5.8 4.2857 5.81428 4.69999 6.22857C5.11428 6.64286 5.12856 7.32857 4.69999 7.74286C3.04285 9.41428 2.12858 11.6 2.12858 13.9286C2.12858 15.1714 2.4 16.4143 2.94285 17.6C3.05714 17.8429 3.07142 18.1143 2.98571 18.3714L2.38571 22.3714L6.51428 21.7714C6.72857 21.7429 6.94286 21.7714 7.14286 21.8714C8.74286 22.6714 10.5286 22.9857 12.2571 22.8143C12.8286 22.7429 13.3714 23.1857 13.4286 23.7714C13.4857 24.3571 13.0571 24.8857 12.4714 24.9429C12.1143 24.9857 11.7286 25 11.3429 25Z" fill="#EE8E66"/>
<path d="M28.5857 11.0714C28.5857 4.97143 23.4857 0 17.2286 0C14.1571 0 11.3 1.17143 9.1857 3.27143C7.05713 5.37143 5.88571 8.12857 5.88571 11.0714C5.88571 17.1714 10.9714 22.1429 17.2286 22.1429C17.8 22.1429 18.3429 22.1 18.8 22.0286C18.8143 22.0286 18.8429 22.0286 18.8571 22.0143C19.9857 21.8571 21.0571 21.5429 22.0714 21.0714L27.3 21.8286C27.6429 21.8857 27.9714 21.7714 28.2143 21.5286C28.4429 21.2857 28.5572 20.9429 28.5143 20.6143L27.7143 15.3C28.2857 13.9429 28.5857 12.5143 28.5857 11.0714ZM13.7286 11.4286C13.5857 11.8714 13.1571 12.1857 12.6571 12.1857C12.0286 12.1857 11.5143 11.6857 11.5143 11.0714C11.5143 10.4571 12.0286 9.95714 12.6571 9.95714C12.7857 9.95714 12.9 9.97143 13.0143 10.0143C13.4714 10.1571 13.8 10.5857 13.8 11.0714C13.8 11.2 13.7714 11.3143 13.7286 11.4286ZM17.2286 12.1857C16.6 12.1857 16.0857 11.6857 16.0857 11.0714C16.0857 10.4571 16.6 9.95714 17.2286 9.95714C17.8571 9.95714 18.3714 10.4571 18.3714 11.0714C18.3714 11.6857 17.8571 12.1857 17.2286 12.1857ZM21.8 12.1857C21.1714 12.1857 20.6572 11.6857 20.6572 11.0714C20.6572 10.4571 21.1714 9.95714 21.8 9.95714C22.4286 9.95714 22.9429 10.4571 22.9429 11.0714C22.9429 11.6857 22.4286 12.1857 21.8 12.1857Z" fill="#EE8E66"/>
</svg>
