<svg width="38" height="36" viewBox="0 0 38 36" fill="none" xmlns="http://www.w3.org/2000/svg">
<path d="M28.5 4.5H9.50002C6.00085 4.5 3.16669 7.185 3.16669 10.5V21C3.16669 24.315 6.00085 27 9.50002 27H12.6667V28.5C12.6667 30.15 14.0917 31.5 15.8334 31.5H22.1667C23.9084 31.5 25.3334 30.15 25.3334 28.5V27H28.5C31.9992 27 34.8334 24.315 34.8334 21V10.5C34.8334 7.185 31.9992 4.5 28.5 4.5ZM22.1667 28.5H15.8334V27.06H22.1667V28.5ZM6.33335 10.5C6.33335 8.85 7.75835 7.5 9.50002 7.5H28.5C30.2417 7.5 31.6667 8.85 31.6667 10.5V18H6.33335V10.5ZM28.5 24H9.50002C7.75835 24 6.33335 22.65 6.33335 21H31.6667C31.6667 22.65 30.2417 24 28.5 24Z" fill="#EE8E66"/>
</svg>
