<svg width="7" height="7" viewBox="0 0 7 7" fill="none" xmlns="http://www.w3.org/2000/svg">
<path fill-rule="evenodd" clip-rule="evenodd" d="M3.50001 0.528931C3.46734 0.528931 3.38693 0.537728 3.34421 0.621476L2.68871 1.9062C2.58497 2.10924 2.38502 2.25034 2.15383 2.28272L0.686318 2.48998C0.589393 2.5037 0.556367 2.57408 0.546316 2.60363C0.537341 2.63214 0.522982 2.70462 0.589752 2.76726L1.6509 3.76661C1.81998 3.92601 1.8968 4.15579 1.8566 4.38064L1.60675 5.7917C1.59131 5.88002 1.64767 5.93139 1.6728 5.94899C1.69936 5.96869 1.77044 6.00775 1.85839 5.96271L3.17047 5.29589C3.37724 5.19138 3.6235 5.19138 3.82956 5.29589L5.14127 5.96236C5.22958 6.00705 5.30066 5.96799 5.32758 5.94899C5.35271 5.93139 5.40907 5.88002 5.39363 5.7917L5.14307 4.38064C5.10286 4.15579 5.17968 3.92601 5.34876 3.76661L6.40991 2.76726C6.47704 2.70462 6.46268 2.63178 6.45335 2.60363C6.44365 2.57408 6.41063 2.5037 6.3137 2.48998L4.84619 2.28272C4.61536 2.25034 4.41541 2.10924 4.31167 1.90585L3.65545 0.621476C3.61309 0.537728 3.53268 0.528931 3.50001 0.528931ZM1.77585 6.50984C1.62759 6.50984 1.48041 6.4641 1.3544 6.37401C1.13686 6.21778 1.03025 5.95985 1.07655 5.70016L1.3264 4.28911C1.33574 4.23667 1.31743 4.18354 1.27794 4.14624L0.216794 3.14689C0.0215087 2.96356 -0.0484925 2.69261 0.0340731 2.44101C0.117357 2.1866 0.337771 2.00468 0.609519 1.96668L2.07703 1.75942C2.13375 1.75168 2.18257 1.71754 2.20698 1.66898L2.86284 0.383905C2.98382 0.147087 3.22793 0 3.50003 0C3.77214 0 4.01625 0.147087 4.13722 0.383905L4.79344 1.66863C4.81821 1.71754 4.86667 1.75168 4.92303 1.75942L6.39055 1.96668C6.6623 2.00468 6.88271 2.1866 6.96599 2.44101C7.04856 2.69261 6.9782 2.96356 6.78291 3.14689L5.72177 4.14624C5.68228 4.18354 5.66433 4.23667 5.67366 4.28875L5.92387 5.70016C5.96982 5.9602 5.86321 6.21813 5.6453 6.37401C5.42453 6.53271 5.13699 6.55418 4.89324 6.42961L3.58188 5.7635C3.53055 5.73746 3.46916 5.73746 3.41783 5.7635L2.10647 6.42996C2.00165 6.48345 1.88857 6.50984 1.77585 6.50984Z" fill="#CFA01C"/>
</svg>
