<svg width="26" height="25" viewBox="0 0 26 25" fill="none" xmlns="http://www.w3.org/2000/svg">
<path fill-rule="evenodd" clip-rule="evenodd" d="M12.6284 19.5377C12.1041 19.5377 11.6786 19.1121 11.6786 18.5878V15.3748C11.6786 14.8504 12.1041 14.4249 12.6284 14.4249C13.1527 14.4249 13.5783 14.8504 13.5783 15.3748V18.5878C13.5783 19.1121 13.1527 19.5377 12.6284 19.5377Z" fill="#AEBAA8"/>
<mask id="mask0_0_250" style="mask-type:luminance" maskUnits="userSpaceOnUse" x="0" y="3" width="26" height="14">
<path fill-rule="evenodd" clip-rule="evenodd" d="M0.286501 3.26711H25.6031V16.3257H0.286501V3.26711Z" fill="white"/>
</mask>
<g mask="url(#mask0_0_250)">
<path fill-rule="evenodd" clip-rule="evenodd" d="M2.18621 11.8956C5.19535 13.5306 8.98971 14.426 12.9386 14.426C16.895 14.426 20.6932 13.5306 23.7036 11.8956V8.09364C23.7036 6.47889 22.3979 5.16682 20.7907 5.16682H5.11177C3.49828 5.16682 2.18621 6.47382 2.18621 8.08098V11.8956ZM12.9386 16.3257C8.44892 16.3257 4.12138 15.2391 0.756363 13.2685C0.465074 13.0987 0.286501 12.7872 0.286501 12.449V8.08098C0.286501 5.42645 2.4509 3.26711 5.11176 3.26711H20.7907C23.4452 3.26711 25.6033 5.43152 25.6033 8.09364V12.449C25.6033 12.7872 25.4235 13.0987 25.1334 13.2685C21.7684 15.2391 17.4371 16.3257 12.9386 16.3257Z" fill="#AEBAA8"/>
</g>
<mask id="mask1_0_250" style="mask-type:luminance" maskUnits="userSpaceOnUse" x="7" y="0" width="12" height="6">
<path fill-rule="evenodd" clip-rule="evenodd" d="M7.2459 0H18.0109V5.16202H7.2459V0Z" fill="white"/>
</mask>
<g mask="url(#mask1_0_250)">
<path fill-rule="evenodd" clip-rule="evenodd" d="M17.0611 5.16205C16.5368 5.16205 16.1112 4.73652 16.1112 4.2122V3.74867C16.1112 2.72916 15.2817 1.89962 14.2622 1.89962H10.9947C9.97515 1.89962 9.14561 2.72916 9.14561 3.74867V4.2122C9.14561 4.73652 8.72008 5.16205 8.19576 5.16205C7.67144 5.16205 7.2459 4.73652 7.2459 4.2122V3.74867C7.2459 1.68179 8.92778 -9.15534e-05 10.9947 -9.15534e-05H14.2622C16.329 -9.15534e-05 18.0109 1.68179 18.0109 3.74867V4.2122C18.0109 4.73652 17.5854 5.16205 17.0611 5.16205Z" fill="#AEBAA8"/>
</g>
<path fill-rule="evenodd" clip-rule="evenodd" d="M19.9737 25H5.28263C2.6547 25 0.442172 22.947 0.243336 20.3254L0.00270587 17.1479C-0.0365548 16.6248 0.356052 16.1676 0.879106 16.1283C1.40469 16.1094 1.85809 16.4804 1.89862 17.0047L2.13798 20.1811C2.26209 21.8173 3.64255 23.1003 5.28263 23.1003H19.9737C21.6138 23.1003 22.9955 21.8173 23.1184 20.1811L23.359 17.0047C23.3995 16.4804 23.8643 16.1081 24.3785 16.1283C24.9016 16.1676 25.2929 16.6248 25.2537 17.1479L25.013 20.3254C24.8142 22.947 22.6017 25 19.9737 25Z" fill="#AEBAA8"/>
</svg>
