<svg width="30" height="30" viewBox="0 0 30 30" fill="none" xmlns="http://www.w3.org/2000/svg">
<g opacity="0.7">
<path d="M24.7625 22.9375L21.1375 19.3125C22.5 17.5625 23.2375 15.425 23.2375 13.175C23.2375 10.4875 22.1875 7.96252 20.2875 6.06252C16.375 2.13752 9.98748 2.13752 6.07498 6.06252C2.14998 9.98752 2.14998 16.3625 6.07498 20.275C7.97498 22.175 10.5 23.225 13.1875 23.225C15.4625 23.225 17.625 22.4625 19.375 21.0875L23 24.7125C23.25 24.9625 23.5625 25.075 23.8875 25.075C24.2125 25.075 24.525 24.95 24.775 24.7125C25.2625 24.225 25.2625 23.4375 24.775 22.95L24.7625 22.9375ZM7.83748 18.5125C4.88748 15.5625 4.88748 10.775 7.83748 7.83752C9.31248 6.36252 11.25 5.62502 13.175 5.62502C15.1 5.62502 17.0375 6.36252 18.5125 7.83752C19.9875 9.31252 20.725 11.1625 20.725 13.175C20.725 15.1875 19.9375 17.0875 18.5125 18.5125C17.0875 19.9375 15.1875 20.725 13.175 20.725C11.1625 20.725 9.26248 19.9375 7.83748 18.5125Z" fill="#686C66" fill-opacity="0.5"/>
</g>
</svg>
