<svg width="23" height="25" viewBox="0 0 23 25" fill="none" xmlns="http://www.w3.org/2000/svg">
<path fill-rule="evenodd" clip-rule="evenodd" d="M21.7054 10.3542H0.979646C0.498246 10.3542 0.107545 9.96345 0.107545 9.48205C0.107545 9.00065 0.498246 8.60995 0.979646 8.60995H21.7054C22.1868 8.60995 22.5775 9.00065 22.5775 9.48205C22.5775 9.96345 22.1868 10.3542 21.7054 10.3542Z" fill="#AEBAA8"/>
<path fill-rule="evenodd" clip-rule="evenodd" d="M16.5131 14.8952C16.0317 14.8952 15.6364 14.5045 15.6364 14.0231C15.6364 13.5417 16.0213 13.151 16.5027 13.151H16.5131C16.9945 13.151 17.3852 13.5417 17.3852 14.0231C17.3852 14.5045 16.9945 14.8952 16.5131 14.8952Z" fill="#AEBAA8"/>
<path fill-rule="evenodd" clip-rule="evenodd" d="M11.3532 14.8952C10.8718 14.8952 10.4764 14.5045 10.4764 14.0231C10.4764 13.5417 10.8613 13.151 11.3427 13.151H11.3532C11.8346 13.151 12.2253 13.5417 12.2253 14.0231C12.2253 14.5045 11.8346 14.8952 11.3532 14.8952Z" fill="#AEBAA8"/>
<path fill-rule="evenodd" clip-rule="evenodd" d="M6.18241 14.8952C5.70101 14.8952 5.3045 14.5045 5.3045 14.0231C5.3045 13.5417 5.69055 13.151 6.17195 13.151H6.18241C6.66381 13.151 7.05451 13.5417 7.05451 14.0231C7.05451 14.5045 6.66381 14.8952 6.18241 14.8952Z" fill="#AEBAA8"/>
<path fill-rule="evenodd" clip-rule="evenodd" d="M16.5131 19.4143C16.0317 19.4143 15.6364 19.0236 15.6364 18.5422C15.6364 18.0608 16.0213 17.6701 16.5027 17.6701H16.5131C16.9945 17.6701 17.3852 18.0608 17.3852 18.5422C17.3852 19.0236 16.9945 19.4143 16.5131 19.4143Z" fill="#AEBAA8"/>
<path fill-rule="evenodd" clip-rule="evenodd" d="M11.3532 19.4143C10.8718 19.4143 10.4764 19.0236 10.4764 18.5422C10.4764 18.0608 10.8613 17.6701 11.3427 17.6701H11.3532C11.8346 17.6701 12.2253 18.0608 12.2253 18.5422C12.2253 19.0236 11.8346 19.4143 11.3532 19.4143Z" fill="#AEBAA8"/>
<path fill-rule="evenodd" clip-rule="evenodd" d="M6.18241 19.4143C5.70101 19.4143 5.3045 19.0236 5.3045 18.5422C5.3045 18.0608 5.69055 17.6701 6.17195 17.6701H6.18241C6.66381 17.6701 7.05451 18.0608 7.05451 18.5422C7.05451 19.0236 6.66381 19.4143 6.18241 19.4143Z" fill="#AEBAA8"/>
<path fill-rule="evenodd" clip-rule="evenodd" d="M16.0391 5.57098C15.5577 5.57098 15.167 5.18028 15.167 4.69888V0.872101C15.167 0.390701 15.5577 0 16.0391 0C16.5205 0 16.9112 0.390701 16.9112 0.872101V4.69888C16.9112 5.18028 16.5205 5.57098 16.0391 5.57098Z" fill="#AEBAA8"/>
<path fill-rule="evenodd" clip-rule="evenodd" d="M6.64584 5.57098C6.16444 5.57098 5.77374 5.18028 5.77374 4.69888V0.872101C5.77374 0.390701 6.16444 0 6.64584 0C7.12724 0 7.51794 0.390701 7.51794 0.872101V4.69888C7.51794 5.18028 7.12724 5.57098 6.64584 5.57098Z" fill="#AEBAA8"/>
<mask id="mask0_0_265" style="mask-type:luminance" maskUnits="userSpaceOnUse" x="0" y="1" width="23" height="24">
<path fill-rule="evenodd" clip-rule="evenodd" d="M0 1.83596H22.6746V25H0V1.83596Z" fill="white"/>
</mask>
<g mask="url(#mask0_0_265)">
<path fill-rule="evenodd" clip-rule="evenodd" d="M6.41983 3.58016C3.40468 3.58016 1.7442 5.18831 1.7442 8.10811V18.6303C1.7442 21.6141 3.40468 23.2559 6.41983 23.2559H16.2548C19.27 23.2559 20.9304 21.6443 20.9304 18.7187V8.10811C20.9351 6.67205 20.549 5.55576 19.7827 4.78831C18.9944 3.9976 17.7792 3.58016 16.2653 3.58016H6.41983ZM16.2548 25.0001H6.41983C2.46049 25.0001 0 22.5594 0 18.6303V8.10811C0 4.2383 2.46049 1.83596 6.41983 1.83596H16.2653C18.2525 1.83596 19.8955 2.43131 21.0176 3.55574C22.1072 4.64994 22.6805 6.22321 22.6746 8.11044V18.7187C22.6746 22.5931 20.2142 25.0001 16.2548 25.0001Z" fill="#AEBAA8"/>
</g>
</svg>
