<svg width="7" height="7" viewBox="0 0 7 7" fill="none" xmlns="http://www.w3.org/2000/svg">
<path d="M5.57088 4.04963C5.48024 4.13563 5.4386 4.26 5.45924 4.38197L5.77035 6.0676C5.7966 6.21047 5.73501 6.35505 5.61287 6.43762C5.49319 6.52327 5.33396 6.53355 5.20343 6.46503L3.65348 5.6736C3.59959 5.64551 3.53974 5.63043 3.4785 5.62872H3.38366C3.35077 5.63352 3.31857 5.64379 3.28918 5.65955L1.73888 6.45475C1.66224 6.49244 1.57545 6.5058 1.49041 6.49244C1.28324 6.45406 1.14501 6.26083 1.17895 6.05698L1.49041 4.37134C1.51106 4.24835 1.46941 4.1233 1.37878 4.03593L0.115091 2.8368C0.00940531 2.73642 -0.0273399 2.58567 0.0209538 2.44965C0.0678477 2.31398 0.187532 2.21497 0.332063 2.1927L2.07134 1.94567C2.20362 1.93231 2.3198 1.85351 2.3793 1.73703L3.1457 0.198713C3.16389 0.164452 3.18734 0.132932 3.21569 0.106209L3.24718 0.0822261C3.26363 0.0644104 3.28253 0.0496783 3.30352 0.037687L3.34167 0.0239826L3.40116 0H3.54849C3.68008 0.0133617 3.79591 0.0904487 3.85645 0.205565L4.633 1.73703C4.68899 1.84906 4.79783 1.92683 4.92346 1.94567L6.66274 2.1927C6.80972 2.21325 6.93255 2.31261 6.98119 2.44965C7.02704 2.58704 6.98749 2.73779 6.87971 2.8368L5.57088 4.04963Z" fill="#CFA01C"/>
</svg>
